HIERARCHY
ROOT Hips
{
 OFFSET 0.000000 0.000000 0.000000
 CHANNELS 6 Xposition Yposition Zposition Yrotation Xrotation Zrotation
 JOINT Chest
 {
  OFFSET 0.000000 9.588913 -0.003946
  CHANNELS 3 Yrotation Xrotation Zrotation
  JOINT Chest2
  {
   OFFSET 0.000000 9.541882 0.008053
   CHANNELS 3 Yrotation Xrotation Zrotation
   JOINT Chest3
   {
    OFFSET 0.000000 9.501360 0.000000
    CHANNELS 3 Yrotation Xrotation Zrotation
    JOINT Chest4
    {
     OFFSET 0.000000 9.491660 0.000000
     CHANNELS 3 Yrotation Xrotation Zrotation
     JOINT Neck
     {
      OFFSET 0.000000 14.331917 0.000000
      CHANNELS 3 Yrotation Xrotation Zrotation
      JOINT Head
      {
       OFFSET 0.000000 8.884799 0.017034
       CHANNELS 3 Yrotation Xrotation Zrotation
       End Site
       {
        OFFSET 0.000000 16.896195 0.008993
       }
      }
     }
     JOINT RightCollar
     {
      OFFSET -2.923010 9.499495 0.000000
      CHANNELS 3 Yrotation Xrotation Zrotation
      JOINT RightShoulder
      {
       OFFSET -13.795216 0.000000 0.000000
       CHANNELS 3 Yrotation Xrotation Zrotation
       JOINT RightElbow
       {
        OFFSET -30.272209 0.000000 0.000000
        CHANNELS 3 Yrotation Xrotation Zrotation
        JOINT RightWrist
        {
         OFFSET -24.478199 0.000000 0.000000
         CHANNELS 3 Yrotation Xrotation Zrotation
         End Site
         {
          OFFSET -18.090752 0.000000 0.000000
         }
        }
       }
      }
     }
     JOINT LeftCollar
     {
      OFFSET 2.923010 9.499495 0.000000
      CHANNELS 3 Yrotation Xrotation Zrotation
      JOINT LeftShoulder
      {
       OFFSET 13.795216 0.000000 0.000000
       CHANNELS 3 Yrotation Xrotation Zrotation
       JOINT LeftElbow
       {
        OFFSET 30.272209 0.000000 0.000000
        CHANNELS 3 Yrotation Xrotation Zrotation
        JOINT LeftWrist
        {
         OFFSET 24.478199 0.000000 0.000000
         CHANNELS 3 Yrotation Xrotation Zrotation
         End Site
         {
          OFFSET 18.090752 0.000000 0.000000
         }
        }
       }
      }
     }
    }
   }
  }
 }
 JOINT RightHip
 {
  OFFSET -7.826875 0.019532 0.001973
  CHANNELS 3 Yrotation Xrotation Zrotation
  JOINT RightKnee
  {
   OFFSET 0.000000 -40.546152 -0.001885
   CHANNELS 3 Yrotation Xrotation Zrotation
   JOINT RightAnkle
   {
    OFFSET 0.000000 -39.417092 -0.003189
    CHANNELS 3 Yrotation Xrotation Zrotation
    JOINT RightToe
    {
     OFFSET 0.000000 -7.579396 17.243563
     CHANNELS 3 Yrotation Xrotation Zrotation
     End Site
     {
      OFFSET 0.000000 -1.500329 6.694466
     }
    }
   }
  }
 }
 JOINT LeftHip
 {
  OFFSET 7.826875 0.019532 0.001973
  CHANNELS 3 Yrotation Xrotation Zrotation
  JOINT LeftKnee
  {
   OFFSET 0.000000 -40.546152 -0.001885
   CHANNELS 3 Yrotation Xrotation Zrotation
   JOINT LeftAnkle
   {
    OFFSET 0.000000 -39.417092 -0.003189
    CHANNELS 3 Yrotation Xrotation Zrotation
    JOINT LeftToe
    {
     OFFSET 0.000000 -7.579396 17.243563
     CHANNELS 3 Yrotation Xrotation Zrotation
     End Site
     {
      OFFSET 0.000000 -1.500329 6.694466
     }
    }
   }
  }
 }
}
MOTION
Frames: 13
Frame Time: 0.008333
0.000000 87.345680 0.000000 0.000000 -5.767889 0.000000 0.000000 11.653876 0.000000 0.000000 -5.885988 0.000000 0.000000 -0.000000 0.000000 0.000000 -0.000000 0.000000 0.000000 12.528808 0.000000 0.000000 0.711711 0.000000 0.000000 -0.000000 0.000000 0.000000 -0.000000 0.000000 2.309063 -0.000000 0.000000 -2.309063 -0.000000 -0.000000 0.000000 -0.000000 0.000000 0.000000 0.000000 0.000000 -2.309063 0.000000 0.000000 2.309063 -0.000000 0.000000 0.000000 8.520374 0.000000 0.000000 1.905768 0.000000 -0.000000 -4.658254 0.000000 0.000000 -0.000000 0.000000 0.000000 8.520374 0.000000 0.000000 1.905768 0.000000 -0.000000 -4.658254 0.000000 0.000000 -0.000000 0.000000
20.637741 89.196520 6.238469 51.422680 -9.872509 -0.941486 -5.424337 5.807707 0.496951 -3.114087 3.316054 0.410092 -3.890522 4.148162 0.484552 -3.114087 3.316054 0.410092 -4.982545 21.008748 -1.933888 -8.486153 3.232655 -2.081934 8.264896 0.027369 -4.140482 8.430157 -4.663655 83.866238 4.242092 5.235293 1.310832 1.686973 -2.898672 -0.268093 7.324171 -0.662038 -2.541504 -6.490424 -5.495623 -87.211175 -2.535618 19.986234 1.876772 5.587965 -7.950974 6.445070 0.628335 9.284820 -0.457307 -11.096076 5.150570 -0.130004 -8.105697 -4.348379 2.279106 0.012702 -0.109253 0.001147 -10.024470 11.086989 -1.671163 0.693257 3.037378 -0.431186 -6.847052 -3.861764 1.738692 0.001337 0.138676 -0.001464
20.640268 89.196726 6.239078 51.410979 -9.867949 -0.942861 -5.420326 5.809647 0.495655 -3.112325 3.317186 0.410734 -3.888312 4.149581 0.485362 -3.112325 3.317186 0.410734 -4.994567 20.999211 -1.940664 -8.506125 3.214916 -2.090294 8.272289 0.031456 -4.129915 8.399397 -4.689752 83.901759 4.258743 5.182075 1.293481 1.684900 -2.902218 -0.265373 7.321015 -0.654030 -2.545280 -6.439461 -5.487829 -87.232331 -2.417927 19.948409 1.941111 5.587955 -7.953439 6.438500 0.639314 9.277883 -0.455968 -11.093848 5.154881 -0.129698 -8.106268 -4.348418 2.282030 0.012126 -0.111476 0.000780 -10.018294 11.085236 -1.670214 0.694990 3.038686 -0.430073 -6.844977 -3.862900 1.742629 0.000797 0.138856 -0.003169
20.643106 89.197020 6.240263 51.395386 -9.863102 -0.944929 -5.414509 5.810999 0.495324 -3.109191 3.317713 0.411276 -3.884389 4.150241 0.486064 -3.109191 3.317713 0.411276 -5.008827 20.989951 -1.949416 -8.529585 3.197640 -2.101611 8.278601 0.038202 -4.121246 8.363935 -4.709405 83.938084 4.303937 5.127307 1.287455 1.685214 -2.901262 -0.257923 7.315663 -0.642455 -2.547411 -6.391118 -5.481208 -87.255577 -2.322250 19.927456 1.987187 5.584679 -7.953022 6.431455 0.650028 9.269110 -0.453481 -11.090682 5.161289 -0.128363 -8.109043 -4.348323 2.282732 0.011163 -0.114358 0.000961 -10.008552 11.084432 -1.670651 0.695787 3.040249 -0.428308 -6.829854 -3.865143 1.747803 0.001643 0.139134 -0.004390
20.646289 89.197379 6.241845 51.380643 -9.857975 -0.946226 -5.407998 5.812148 0.495492 -3.105362 3.318050 0.411309 -3.879600 4.150659 0.486137 -3.105362 3.318050 0.411309 -5.024929 20.980845 -1.958713 -8.556232 3.180668 -2.113397 8.279508 0.044548 -4.115590 8.324812 -4.722106 83.978244 4.379455 5.069757 1.291406 1.686968 -2.899586 -0.245874 7.305944 -0.631292 -2.548100 -6.359036 -5.472971 -87.279838 -2.247910 19.917134 2.018431 5.578979 -7.952067 6.421746 0.654990 9.259242 -0.453017 -11.086092 5.169883 -0.125302 -8.111644 -4.349106 2.280421 0.010216 -0.117218 0.002301 -10.001989 11.083610 -1.671830 0.698839 3.041681 -0.427649 -6.814387 -3.867612 1.752741 0.002751 0.139347 -0.004635
20.649775 89.197766 6.243701 51.369722 -9.852622 -0.945621 -5.401562 5.814766 0.495501 -3.101683 3.319513 0.410601 -3.875006 4.152479 0.485273 -3.101684 3.319513 0.410601 -5.042869 20.969584 -1.967906 -8.586266 3.159754 -2.124354 8.275558 0.044535 -4.110298 8.281120 -4.730348 84.022416 4.481502 5.006179 1.302138 1.690593 -2.898938 -0.231012 7.292257 -0.628261 -2.548446 -6.347915 -5.462208 -87.303711 -2.190348 19.917853 2.036329 5.571362 -7.949213 6.407266 0.653072 9.250073 -0.457195 -11.080880 5.179083 -0.121519 -8.105803 -4.351253 2.277660 0.010159 -0.119438 0.004149 -10.002095 11.081605 -1.673235 0.705920 3.043744 -0.429171 -6.808161 -3.869768 1.756792 0.003474 0.139021 -0.004039
20.653305 89.198169 6.246242 51.357514 -9.848255 -0.944175 -5.394146 5.819799 0.494841 -3.097535 3.322465 0.409535 -3.869828 4.156156 0.483953 -3.097535 3.322465 0.409535 -5.061320 20.955421 -1.977518 -8.617141 3.133444 -2.135768 8.268578 0.036658 -4.104991 8.234000 -4.736599 84.073824 4.604697 4.931821 1.315484 1.694428 -2.899806 -0.217272 7.279842 -0.634619 -2.547848 -6.356401 -5.449168 -87.326792 -2.146512 19.935615 2.044257 5.563573 -7.943466 6.387161 0.652238 9.242741 -0.462520 -11.076458 5.187693 -0.118004 -8.093760 -4.354033 2.275586 0.010812 -0.120995 0.005516 -10.004249 11.079157 -1.675230 0.712595 3.049099 -0.430711 -6.801666 -3.873451 1.759841 0.003601 0.137925 -0.003143
20.656742 89.198557 6.249616 51.341962 -9.845543 -0.942128 -5.386118 5.825537 0.493103 -3.092930 3.325904 0.408297 -3.864080 4.160440 0.482418 -3.092930 3.325904 0.408297 -5.078848 20.940498 -1.987699 -8.646186 3.105672 -2.148430 8.259348 0.027120 -4.101464 8.185949 -4.743199 84.134492 4.744004 4.846242 1.330757 1.700929 -2.906511 -0.210483 7.272266 -0.642997 -2.544525 -6.383936 -5.434792 -87.351010 -2.117449 19.970807 2.045502 5.560972 -7.935474 6.361195 0.656115 9.237365 -0.466864 -11.072076 5.195634 -0.114507 -8.083517 -4.357434 2.273096 0.011274 -0.121776 0.006554 -10.005861 11.078248 -1.678497 0.716659 3.055663 -0.430534 -6.791253 -3.877987 1.761501 0.003274 0.136298 -0.002387
20.659970 89.198865 6.253623 51.328636 -9.843661 -0.939721 -5.380343 5.830349 0.491108 -3.089611 3.328992 0.407187 -3.859938 4.164287 0.481035 -3.089611 3.328992 0.407187 -5.095170 20.926212 -1.998969 -8.672720 3.078990 -2.163441 8.251779 0.020736 -4.102090 8.136495 -4.751225 84.201838 4.894692 4.752316 1.351768 1.713258 -2.917178 -0.211433 7.271981 -0.648176 -2.542830 -6.426698 -5.421786 -87.377052 -2.101172 20.020586 2.042175 5.566302 -7.922346 6.329497 0.659520 9.234258 -0.471453 -11.067251 5.201817 -0.109453 -8.077075 -4.361437 2.270464 0.011484 -0.121803 0.006549 -10.008383 11.080356 -1.682428 0.721089 3.057613 -0.427693 -6.786820 -3.880750 1.760778 0.002542 0.135095 -0.001961
20.662638 89.199035 6.258262 51.318630 -9.841299 -0.938600 -5.377575 5.833634 0.490110 -3.088020 3.331163 0.406622 -3.857954 4.166995 0.480325 -3.088020 3.331163 0.406622 -5.109908 20.913339 -2.011873 -8.695890 3.054797 -2.181940 8.249381 0.019095 -4.107426 8.083764 -4.759746 84.271895 5.055813 4.657864 1.381510 1.728612 -2.927799 -0.216783 7.279873 -0.649225 -2.546550 -6.477644 -5.411153 -87.402980 -2.094850 20.083292 2.033719 5.575947 -7.905803 6.294840 0.661712 9.232060 -0.473620 -11.062737 5.205697 -0.104901 -8.074282 -4.365403 2.268759 0.011597 -0.121345 0.005491 -10.009537 11.084401 -1.685573 0.725981 3.055156 -0.421632 -6.786977 -3.882971 1.757734 0.002049 0.135124 -0.001713
20.664719 89.199050 6.263442 51.311088 -9.838105 -0.938874 -5.377429 5.835097 0.489715 -3.087797 3.332270 0.406095 -3.857680 4.168374 0.479658 -3.087797 3.332270 0.406095 -5.122657 20.902415 -2.025308 -8.715273 3.034138 -2.202070 8.253566 0.023104 -4.112959 8.027262 -4.771253 84.339271 5.223710 4.572443 1.417550 1.744391 -2.939824 -0.223999 7.291926 -0.647148 -2.551466 -6.528913 -5.402207 -87.429704 -2.099108 20.156584 2.016134 5.582222 -7.892879 6.262960 0.663699 9.230016 -0.471391 -11.059181 5.206959 -0.103427 -8.076367 -4.368892 2.266951 0.011355 -0.120410 0.005061 -10.010050 11.087851 -1.686773 0.727248 3.052792 -0.415662 -6.784344 -3.886853 1.754513 0.002446 0.136041 -0.001628
20.666517 89.198965 6.269199 51.305701 -9.835463 -0.940509 -5.378952 5.835794 0.489149 -3.088473 3.333012 0.405298 -3.858533 4.169295 0.478649 -3.088473 3.333012 0.405298 -5.133856 20.892810 -2.037724 -8.732123 3.015939 -2.220865 8.260584 0.029984 -4.114640 7.975459 -4.787607 84.400623 5.392564 4.499904 1.455571 1.760972 -2.950997 -0.230423 7.304632 -0.643997 -2.554514 -6.577239 -5.394118 -87.460660 -2.114899 20.235375 1.989328 5.579437 -7.884561 6.237980 0.666504 9.229849 -0.466105 -11.056825 5.205652 -0.102068 -8.083517 -4.371779 2.263399 0.010999 -0.119407 0.005331 -10.011689 11.090542 -1.685801 0.724039 3.053817 -0.412550 -6.774377 -3.893343 1.752509 0.003428 0.137066 -0.001239
20.667928 89.198778 6.275475 51.298946 -9.832186 -0.944358 -5.378841 5.836160 0.488282 -3.088390 3.333318 0.404752 -3.858434 4.169673 0.477964 -3.088390 3.333318 0.404752 -5.144180 20.884525 -2.048464 -8.747851 3.000257 -2.236941 8.265013 0.037700 -4.111243 7.936874 -4.808130 84.455880 5.559919 4.440830 1.493633 1.776450 -2.955806 -0.234890 7.316720 -0.640730 -2.556838 -6.622965 -5.387476 -87.496683 -2.139897 20.315310 1.956030 5.567936 -7.878780 6.218904 0.674279 9.229902 -0.458290 -11.055980 5.202738 -0.099239 -8.089830 -4.373793 2.258700 0.010849 -0.118904 0.005659 -10.010897 11.091201 -1.680774 0.721245 3.059324 -0.412437 -6.762246 -3.902777 1.752096 0.004128 0.138219 -0.000717
